HIERARCHY
ROOT SimulationBone
{
	OFFSET 0.000000 0.000000 0.000000
	CHANNELS 6 Xposition Yposition Zposition Zrotation Yrotation Xrotation 
	JOINT Hips
	{
		OFFSET 0.000000 0.000000 0.000000
		CHANNELS 6 Xposition Yposition Zposition Zrotation Yrotation Xrotation 
		JOINT LeftUpLeg
		{
			OFFSET 0.103462 1.857831 10.548496
			CHANNELS 3 Zrotation Yrotation Xrotation
			JOINT LeftLeg
			{
				OFFSET 43.500000 -0.000038 -0.000010
				CHANNELS 3 Zrotation Yrotation Xrotation
				JOINT LeftFoot
				{
					OFFSET 42.372192 0.000011 0.000010
					CHANNELS 3 Zrotation Yrotation Xrotation
					JOINT LeftToe
					{
						OFFSET 17.299999 0.000001 -0.000001
						CHANNELS 3 Zrotation Yrotation Xrotation
						End Site
						{
							OFFSET 0.000000 0.000000 0.000000
						}
					}
				}
			}
		}
		JOINT RightUpLeg
		{
			OFFSET 0.103456 1.857825 -10.548502
			CHANNELS 3 Zrotation Yrotation Xrotation
			JOINT RightLeg
			{
				OFFSET 43.500038 -0.000023 0.000011
				CHANNELS 3 Zrotation Yrotation Xrotation
				JOINT RightFoot
				{
					OFFSET 42.372261 -0.000008 0.000011
					CHANNELS 3 Zrotation Yrotation Xrotation
					JOINT RightToe
					{
						OFFSET 17.299994 -0.000004 0.000002
						CHANNELS 3 Zrotation Yrotation Xrotation
						End Site
						{
							OFFSET 0.000000 0.000000 0.000000
						}
					}
				}
			}
		}
		JOINT Spine
		{
			OFFSET 6.901965 -2.603729 -0.000002
			CHANNELS 3 Zrotation Yrotation Xrotation
			JOINT Spine1
			{
				OFFSET 12.588101 -0.000004 0.000003
				CHANNELS 3 Zrotation Yrotation Xrotation
				JOINT Spine2
				{
					OFFSET 12.343205 0.000006 0.000001
					CHANNELS 3 Zrotation Yrotation Xrotation
					JOINT Neck
					{
						OFFSET 25.832897 -0.000008 -0.000001
						CHANNELS 3 Zrotation Yrotation Xrotation
						JOINT Head
						{
							OFFSET 11.766601 0.000009 -0.000008
							CHANNELS 3 Zrotation Yrotation Xrotation
							End Site
							{
								OFFSET 0.000000 0.000000 0.000000
							}
						}
					}
					JOINT LeftShoulder
					{
						OFFSET 19.745893 -1.480370 6.000097
						CHANNELS 3 Zrotation Yrotation Xrotation
						JOINT LeftArm
						{
							OFFSET 11.284136 -0.000006 -0.000021
							CHANNELS 3 Zrotation Yrotation Xrotation
							JOINT LeftForeArm
							{
								OFFSET 33.000042 0.000005 0.000030
								CHANNELS 3 Zrotation Yrotation Xrotation
								JOINT LeftHand
								{
									OFFSET 25.200008 0.000013 0.000010
									CHANNELS 3 Zrotation Yrotation Xrotation
									End Site
									{
										OFFSET 0.000000 0.000000 0.000000
									}
								}
							}
						}
					}
					JOINT RightShoulder
					{
						OFFSET 19.746088 -1.480379 -6.000076
						CHANNELS 3 Zrotation Yrotation Xrotation
						JOINT RightArm
						{
							OFFSET 11.284133 -0.000016 -0.000013
							CHANNELS 3 Zrotation Yrotation Xrotation
							JOINT RightForeArm
							{
								OFFSET 33.000095 0.000019 0.000001
								CHANNELS 3 Zrotation Yrotation Xrotation
								JOINT RightHand
								{
									OFFSET 25.199785 0.000138 0.000422
									CHANNELS 3 Zrotation Yrotation Xrotation
									End Site
									{
										OFFSET 0.000000 0.000000 0.000000
									}
								}
							}
						}
					}
				}
			}
		}
	}
}
MOTION
Frames: 6
Frame Time: 0.016667
-179.664310 0.000000 139.759150 0.000000 125.133316 0.000000 0.180693 84.304314 0.501453 97.221932 0.547059 178.338224 -162.413566 -11.580902 -169.123912 -22.523618 -5.744268 1.724718 94.652795 -1.138094 -1.078922 21.454555 0.003119 0.000019 155.444164 15.289392 -173.341336 -25.372710 1.030738 1.413112 64.821663 0.658601 4.537601 21.454553 -0.003094 0.000000 9.803797 -0.104257 -0.391034 9.595361 -0.175674 -0.789359 9.277295 -0.180573 -0.788272 17.281108 1.805887 -2.018271 1.077652 1.045505 -2.257962 -164.578106 -68.477097 -17.268790 -18.457147 52.355247 -6.500839 -107.693805 0.718969 3.085949 -15.096019 -10.270047 38.214211 -166.223212 73.251425 15.585029 -5.479583 -55.892976 -10.896252 -53.421589 19.485920 -2.165732 -10.269537 31.453058 -26.029198 
-179.596384 0.000000 137.769281 0.000000 125.341010 0.000000 0.162651 84.131588 0.477877 97.055176 0.999623 177.882165 -162.272596 -12.131844 -171.036262 -24.346790 -4.566826 2.276302 93.328159 -1.599977 -1.497079 21.454556 0.003118 0.000015 154.814434 14.081317 -169.682527 -28.027553 -1.546670 0.529483 64.694681 1.194208 4.131476 21.454551 -0.003097 -0.000001 9.826317 0.008948 -0.439296 9.639562 0.054506 -0.876331 9.321496 0.049090 -0.876644 17.193939 1.896165 -1.821354 1.309542 0.779806 -1.996081 -164.890733 -68.534266 -16.945089 -16.414058 52.980637 -4.737059 -105.698841 0.142881 3.064312 -14.124313 -9.355991 39.639742 -166.743827 73.327963 15.050369 -7.528399 -55.478346 -8.792426 -53.408956 19.443437 -2.162774 -9.971475 32.376259 -25.836297 
-179.558579 0.000000 135.784165 0.000000 125.469287 0.000000 0.146869 84.015228 0.477275 97.072940 1.402448 177.944068 -162.329322 -12.680602 -172.056700 -26.537594 -3.503436 2.442948 91.604748 -1.755628 -1.402706 21.454557 0.003115 0.000014 154.727116 13.189298 -169.438347 -30.281831 -2.030184 0.926626 64.603234 1.177298 4.745355 21.454551 -0.003098 -0.000000 9.898248 0.146174 -0.568307 9.782036 0.339894 -1.122222 9.463981 0.332992 -1.124251 17.243752 1.971021 -1.603320 1.409308 0.574488 -1.729183 -165.001797 -68.612696 -16.829696 -14.415959 53.582815 -3.388677 -103.166195 -0.162302 2.947224 -12.930330 -8.473596 40.399759 -166.950504 73.434017 14.837837 -9.586252 -55.261327 -6.713641 -53.737933 19.456801 -2.174789 -9.931769 32.629182 -25.732450 
-179.551083 0.000000 133.803998 0.000000 125.522198 0.000000 0.125246 83.925392 0.509634 97.169176 1.811003 178.366945 -162.799877 -13.248027 -172.533070 -29.349720 -2.494303 2.391675 89.344387 -1.721342 -1.022973 21.454556 0.003112 0.000015 154.958366 12.531702 -171.036270 -32.409343 -1.087492 1.949905 64.922020 0.789868 5.744526 21.454551 -0.003097 0.000002 9.985634 0.308793 -0.732644 9.954367 0.679487 -1.436007 9.636330 0.670683 -1.440073 17.446222 2.102635 -1.400682 1.353880 0.357895 -1.479435 -165.053960 -68.763457 -16.774729 -12.600191 54.208430 -2.084077 -100.029644 -0.644225 2.828064 -11.521857 -7.611644 40.734737 -166.920535 73.505523 14.868279 -11.522052 -55.133983 -4.799983 -54.375991 19.483209 -2.198796 -10.099507 32.490348 -25.774279 
-179.574086 0.000000 131.828976 0.000000 125.503647 0.000000 0.089876 83.832237 0.584933 97.236014 2.279606 178.992380 -163.894692 -13.853394 -172.810001 -33.033703 -1.469408 2.275144 86.408449 -1.620205 -0.580572 21.454557 0.003110 0.000016 155.219478 12.052798 -172.909312 -34.654439 0.569468 3.010202 66.025778 0.201668 6.485843 21.454553 -0.003095 0.000002 10.054705 0.497933 -0.887037 10.088946 1.071336 -1.727317 9.770924 1.060759 -1.733743 17.817378 2.363368 -1.249078 1.119734 0.058439 -1.268761 -165.193301 -69.037104 -16.628892 -11.088051 54.892760 -0.439024 -96.217605 -1.758486 2.748123 -9.898344 -6.764576 40.883701 -166.733878 73.477382 15.059875 -13.182123 -55.000011 -3.214083 -55.290452 19.479749 -2.231272 -10.417837 32.236842 -26.011864 
-179.627778 0.000000 129.859295 0.000000 125.417409 0.000000 0.034224 83.720929 0.707222 97.185632 2.852869 179.685122 -165.763086 -14.517641 -173.135287 -37.757851 -0.379318 2.163313 82.822514 -1.546490 -0.306008 21.454558 0.003109 0.000016 155.293255 11.640827 -173.798970 -37.147093 2.244416 3.664556 68.094583 -0.408075 6.518512 21.454554 -0.003092 0.000001 10.080199 0.714232 -0.996629 10.135699 1.513045 -1.926981 9.817667 1.501247 -1.936081 18.326246 2.783356 -1.170424 0.726082 -0.352484 -1.113449 -165.562314 -69.451343 -16.245150 -9.977360 55.636670 1.849910 -91.677258 -3.861841 2.692256 -8.038213 -5.971436 40.971670 -166.502415 73.330308 15.298020 -14.447198 -54.805609 -2.066088 -56.442900 19.411402 -2.268069 -10.833159 32.044870 -26.498613 
